<svg xmlns="http://www.w3.org/2000/svg" xmlns:xlink="http://www.w3.org/1999/xlink" id="Layer_1" width="580" height="128" x="0" style="enable-background:new 0 0 580 128" y="0" version="1.1" viewBox="0 0 580 128" xml:space="preserve"><style type="text/css">.st0{fill:#ffc31a}.st1{fill:#ffd538}.st2{fill:#fccd35}</style><g id="layer102"><path d="M73.3,64.9c-6.9,0.4-14.9,0.1-22.4-0.8C27.7,61.3,10.8,53.5,6.4,43.3c-0.4-0.9-0.6-1.2-0.7-1 c-0.2,0.5-1.5,11.8-1.9,16.2c-0.4,4.2-0.4,13.7,0,16.7c1.2,8.8,3.9,14.9,9.2,20.3c9.1,9.2,25,14.8,46.5,16.2 c6.8,0.4,23.2,0.2,25.6-0.4l0.6-0.1V84.8c0.9-7,1.8-14,2.7-21C86.2,64.1,78.1,64.6,73.3,64.9z" class="st0"/><path d="M131.2,52c-0.3-2.8-1-7.3-1.2-7.5c0-0.1-12.2-0.1-26.9,0l-26.9,0.1l6.5,9.6c3.6,5.3,6.5,9.6,6.3,9.6 c-0.9,7-1.9,14.1-2.8,21.1h21.3c17.2,0,21.9-0.1,21.9-0.3c0.2-0.7,1.1-7.7,1.5-12.1C131.5,66.9,131.6,56.2,131.2,52z M102.7,78.4 c-0.6,0.3-1.5,0.5-2,0.5c-4.9,0-6.7-6.7-2.5-9.4c1.7-1.1,3.9-0.9,5.5,0.4c0.9,0.7,1.9,2.7,1.9,3.8 C105.5,75.7,104.4,77.6,102.7,78.4z M115.1,63.8c-0.8,0.4-1.5,0.5-2.7,0.5c-5.9,0-8.6-7.4-4.2-11.5c3-2.8,7.9-1.8,9.9,2 c0.4,0.8,0.6,1.5,0.6,3C118.7,60.7,117.6,62.5,115.1,63.8z M122.3,76c-1.6,1-3.8,0.5-4.6-1c-0.5-1-0.5-2.8,0-3.6 c1.2-1.8,4.2-1.8,5.5,0.1C124.2,73,123.7,75.1,122.3,76z" class="st1"/><path d="M58.7,60.8c-23.7-1.4-43.9-9.2-48.4-18.6c-0.7-1.5-0.8-2-0.8-3.6c0-1.6,0.1-2.1,0.8-3.6 c4-8.3,19.5-15.3,39.8-17.9c8.8-1.1,21.4-1.4,28.8-0.6c17.3,1.9,32.6,6.7,42,13.2c2.8,1.9,6.3,5.6,7.2,7.7c0.4,0.9,0.8,1.9,0.9,2.3 l0.2,0.6l-30.2,0.1l-30.2,0.1l6.8,9.9c3.7,5.5,6.7,10,6.7,10C81.7,60.7,64,61.1,58.7,60.8z M67.2,54.6c1.9-0.8,1.9-2-0.2-2.9 c-2.6-1-7.1-0.2-7.1,1.3c0,0.7,0.7,1.4,1.7,1.7C62.9,55.1,66.1,55,67.2,54.6z M36.2,48.3c0.8-0.3,1.9-1,2.3-1.5 c1.2-1.2,1.2-2.2-0.1-3.5c-2.6-2.7-10.2-2.8-13-0.2c-2.1,2-0.2,4.7,3.9,5.6C31.1,49.2,34.5,48.9,36.2,48.3z M72.1,32.8 c1.3-0.6,1.3-1.5,0.1-2.3c-1.3-0.8-5.5-0.9-6.7-0.2c-1.2,0.7-1.5,1.2-0.9,1.9C65.7,33.5,70,33.9,72.1,32.8z M92.8,32.8 c1.8-0.6,3-1.8,3-3c0-1.2-0.8-2-2.5-2.8c-1.7-0.8-5.4-0.9-7.5-0.3c-1.8,0.5-3.4,2-3.4,3.1c0,1,1.6,2.5,3.2,3 C87.3,33.4,91.1,33.4,92.8,32.8z M49.9,28.9c1.4-0.4,3-1.8,3-2.7c0-0.3-0.4-1-0.9-1.5c-2.4-2.3-8.8-2.5-11.6-0.3 c-0.9,0.6-1,0.9-1,1.6c0,1.5,2.1,2.9,5.1,3.4C45.7,29.6,48.5,29.3,49.9,28.9z" class="st2"/></g><g><path d="M182.5,53.9h-10.1v-7c0-1.2-0.6-1.8-1.8-1.8h-2.9c-1.3,0-1.9,0.6-1.9,1.8v27.3c0,0.7,0.1,1.1,0.4,1.4 c0.3,0.3,0.8,0.4,1.5,0.4h2.9c0.7,0,1.1-0.1,1.4-0.4c0.3-0.3,0.4-0.7,0.4-1.4v-6.8h10.1v7.7c0,5.1-3,7.7-8.9,7.7h-9 c-5.9,0-8.8-2.6-8.8-7.7V45.9c0-5.1,2.9-7.7,8.8-7.7h9c5.9,0,8.9,2.6,8.9,7.7V53.9z" class="st0"/><path d="M202.6,48.1h1.8c5.5,0,8.2,2.6,8.2,7.8v26.9h-9.8V57.2c0-1.2-0.6-1.8-1.9-1.8h-1.7c-1.4,0-2,0.7-2,2.2v25.1 h-9.7V35.9h9.7v15.6C197.9,49.3,199.7,48.1,202.6,48.1z" class="st0"/><path d="M226.5,48.1h7.9c5.9,0,8.9,2.6,8.9,7.8v12.3H227v5.9c0,0.6,0.1,1,0.4,1.3c0.3,0.3,0.8,0.4,1.5,0.4h3.1 c0.7,0,1.1-0.1,1.4-0.4s0.4-0.7,0.4-1.4v-2.3h9.4V75c0,5.2-3,7.8-8.9,7.8h-7.8c-5.9,0-8.8-2.6-8.8-7.8V55.9 C217.7,50.7,220.6,48.1,226.5,48.1z M227,62.4h6.9v-5.6c0-0.6-0.1-1-0.4-1.3c-0.3-0.3-0.7-0.4-1.4-0.4h-3.2c-0.7,0-1.2,0.1-1.5,0.4 c-0.3,0.3-0.4,0.7-0.4,1.3V62.4z" class="st0"/><path d="M256.5,48.1h7.9c5.9,0,8.9,2.6,8.9,7.8v12.3H257v5.9c0,0.6,0.1,1,0.4,1.3c0.3,0.3,0.8,0.4,1.5,0.4h3.1 c0.7,0,1.1-0.1,1.4-0.4s0.4-0.7,0.4-1.4v-2.3h9.4V75c0,5.2-3,7.8-8.9,7.8h-7.8c-5.9,0-8.8-2.6-8.8-7.8V55.9 C247.7,50.7,250.6,48.1,256.5,48.1z M257,62.4h6.9v-5.6c0-0.6-0.1-1-0.4-1.3c-0.3-0.3-0.7-0.4-1.4-0.4h-3.2c-0.7,0-1.2,0.1-1.5,0.4 c-0.3,0.3-0.4,0.7-0.4,1.3V62.4z" class="st0"/><path d="M291.9,74.4v-3.9c0-0.6-0.1-1-0.4-1.3c-0.3-0.3-0.8-0.4-1.5-0.4h-4c-5.8,0-8.8-2.6-8.8-7.7v-5.3 c0-5.2,3-7.8,8.9-7.8h6c5.9,0,8.9,2.6,8.9,7.8V59h-9.4v-2.5c0-0.6-0.1-1-0.4-1.3c-0.3-0.3-0.8-0.4-1.5-0.4h-1 c-0.7,0-1.2,0.1-1.5,0.4c-0.3,0.3-0.4,0.7-0.4,1.3v4.2c0,0.6,0.1,1,0.4,1.3c0.3,0.3,0.8,0.4,1.5,0.4h4c5.8,0,8.8,2.5,8.8,7.6v5 c0,5.2-3,7.8-8.9,7.8h-6.2c-5.9,0-8.8-2.6-8.8-7.8v-3h9.5v2.5c0,1.2,0.6,1.8,1.8,1.8h1.2C291.2,76.2,291.9,75.6,291.9,74.4z" class="st0"/><path d="M314.6,48.1h7.9c5.9,0,8.9,2.6,8.9,7.8v12.3h-16.3v5.9c0,0.6,0.1,1,0.4,1.3c0.3,0.3,0.8,0.4,1.5,0.4h3.1 c0.7,0,1.1-0.1,1.4-0.4s0.4-0.7,0.4-1.4v-2.3h9.4V75c0,5.2-3,7.8-8.9,7.8h-7.8c-5.9,0-8.8-2.6-8.8-7.8V55.9 C305.8,50.7,308.7,48.1,314.6,48.1z M315.1,62.4h6.9v-5.6c0-0.6-0.1-1-0.4-1.3c-0.3-0.3-0.7-0.4-1.4-0.4H317 c-0.7,0-1.2,0.1-1.5,0.4c-0.3,0.3-0.4,0.7-0.4,1.3V62.4z" class="st0"/><path d="M352,73.7v-8c0-0.6-0.1-1-0.4-1.3c-0.3-0.3-0.8-0.4-1.5-0.4h-6.2c-5.5,0-8.3-2.6-8.3-7.8V45.9 c0-5.1,2.9-7.7,8.8-7.7h8.5c5.9,0,8.8,2.6,8.8,7.7v5.8h-10v-4.4c0-1.2-0.6-1.8-1.9-1.8h-2.4c-1.3,0-1.9,0.6-1.9,1.8v7.8 c0,0.6,0.1,1,0.4,1.3c0.3,0.3,0.8,0.4,1.5,0.4h6c3,0,5.1,0.6,6.4,1.9c1.3,1.3,2,3.2,2,5.7V75c0,5.2-2.9,7.8-8.8,7.8h-8.5 c-5.9,0-8.9-2.6-8.9-7.8v-5.7h10v4.4c0,1.2,0.6,1.8,1.9,1.8h2.4C351.4,75.4,352,74.8,352,73.7z" class="st0"/><path d="M398.8,48.1h9l-7,34.6h-10.5l-4.2-22.6l-4.3,22.6h-10.4l-6.8-34.6h9.1l3.4,24.6l4.5-24.6h9.3l4.1,24.5 L398.8,48.1z" class="st0"/><path d="M426,48.1h9.6v34.6h-9.7v-3.4c-0.7,2.3-2.5,3.4-5.5,3.4h-1.7c-5.5,0-8.2-2.6-8.2-7.8V55.9 c0-5.2,2.7-7.8,8.2-7.8h1.7c3.1,0,5,1.3,5.7,3.9V48.1z M422.2,75.4h1.6c1.4,0,2.1-0.7,2.1-2.2V57.7c0-1.5-0.7-2.2-2.1-2.2h-1.6 c-1.3,0-1.9,0.6-1.9,1.8v16.4C420.3,74.8,420.9,75.4,422.2,75.4z" class="st0"/><path d="M456.7,48.1h1.8c5.5,0,8.2,2.6,8.2,7.8V75c0,5.2-2.7,7.8-8.2,7.8h-1.8c-2.9,0-4.8-1.1-5.5-3.4v12.7h-9.7v-44 h9.6V52C451.8,49.4,453.6,48.1,456.7,48.1z M456.8,73.7V57.2c0-1.2-0.6-1.8-1.9-1.8h-1.7c-1.4,0-2,0.7-2,2.2v15.5 c0,1.5,0.7,2.2,2,2.2h1.7C456.2,75.4,456.8,74.8,456.8,73.7z" class="st0"/><path d="M471.5,82.8V72.4h10.2v10.4H471.5z" class="st0"/><path d="M507.7,82.8l-1.5-8H496l-1.5,8h-9.9l10.1-44.5h12.7l10.4,44.5H507.7z M497.4,67.4h7.3l-3.6-18.8L497.4,67.4z" class="st0"/><path d="M536.2,48.1h1.8c5.5,0,8.2,2.6,8.2,7.8V75c0,5.2-2.7,7.8-8.2,7.8h-1.8c-2.9,0-4.8-1.1-5.5-3.4v12.7H521v-44 h9.6V52C531.3,49.4,533.1,48.1,536.2,48.1z M536.4,73.7V57.2c0-1.2-0.6-1.8-1.9-1.8h-1.7c-1.4,0-2,0.7-2,2.2v15.5 c0,1.5,0.7,2.2,2,2.2h1.7C535.7,75.4,536.4,74.8,536.4,73.7z" class="st0"/><path d="M566.6,48.1h1.8c5.5,0,8.2,2.6,8.2,7.8V75c0,5.2-2.7,7.8-8.2,7.8h-1.8c-2.9,0-4.8-1.1-5.5-3.4v12.7h-9.7v-44 h9.6V52C561.7,49.4,563.5,48.1,566.6,48.1z M566.7,73.7V57.2c0-1.2-0.6-1.8-1.9-1.8h-1.7c-1.4,0-2,0.7-2,2.2v15.5 c0,1.5,0.7,2.2,2,2.2h1.7C566.1,75.4,566.7,74.8,566.7,73.7z" class="st0"/></g></svg>