<?xml version="1.0" encoding="utf-8"?><!-- Uploaded to: SVG Repo, www.svgrepo.com, Generator: SVG Repo Mixer Tools -->
<svg width="800px" height="800px" viewBox="0 0 24 24" fill="none" xmlns="http://www.w3.org/2000/svg">
<path fill-rule="evenodd" clip-rule="evenodd" d="M16 3.5C15.1716 3.5 14.5 4.17157 14.5 5C14.5 5.65311 14.9174 6.20873 15.5 6.41465V7.5H7C6.17157 7.5 5.5 8.17157 5.5 9V15C5.5 15.8284 6.17157 16.5 7 16.5H8.5V17.5854C7.9174 17.7913 7.5 18.3469 7.5 19C7.5 19.8284 8.17157 20.5 9 20.5C9.82843 20.5 10.5 19.8284 10.5 19C10.5 18.3469 10.0826 17.7913 9.5 17.5854V16.5H17C17.8284 16.5 18.5 15.8284 18.5 15V13.4146C19.0826 13.2087 19.5 12.6531 19.5 12C19.5 11.3469 19.0826 10.7913 18.5 10.5854V9C18.5 8.17157 17.8284 7.5 17 7.5H16.5V6.41465C17.0826 6.20873 17.5 5.65311 17.5 5C17.5 4.17157 16.8284 3.5 16 3.5ZM15.5 5C15.5 4.72386 15.7239 4.5 16 4.5C16.2761 4.5 16.5 4.72386 16.5 5C16.5 5.27614 16.2761 5.5 16 5.5C15.7239 5.5 15.5 5.27614 15.5 5ZM17.5 10.5V9C17.5 8.72386 17.2761 8.5 17 8.5H7C6.72386 8.5 6.5 8.72386 6.5 9V15C6.5 15.2761 6.72386 15.5 7 15.5H17C17.2761 15.5 17.5 15.2761 17.5 15V13.5H14C13.1716 13.5 12.5 12.8284 12.5 12C12.5 11.1716 13.1716 10.5 14 10.5H17.5ZM9 18.5C8.72386 18.5 8.5 18.7239 8.5 19C8.5 19.2761 8.72386 19.5 9 19.5C9.27614 19.5 9.5 19.2761 9.5 19C9.5 18.7239 9.27614 18.5 9 18.5ZM13.5 12C13.5 11.7239 13.7239 11.5 14 11.5H18C18.2761 11.5 18.5 11.7239 18.5 12C18.5 12.2761 18.2761 12.5 18 12.5H14C13.7239 12.5 13.5 12.2761 13.5 12Z" fill="#47495F"/>
</svg>