<?xml version="1.0" encoding="utf-8"?>
<!-- Generator: Adobe Illustrator 23.0.5, SVG Export Plug-In . SVG Version: 6.00 Build 0)  -->
<svg version="1.1"
	 id="svg13" xmlns:cc="http://creativecommons.org/ns#" xmlns:dc="http://purl.org/dc/elements/1.1/" xmlns:inkscape="http://www.inkscape.org/namespaces/inkscape" xmlns:rdf="http://www.w3.org/1999/02/22-rdf-syntax-ns#" xmlns:sodipodi="http://sodipodi.sourceforge.net/DTD/sodipodi-0.dtd" xmlns:svg="http://www.w3.org/2000/svg"
	 xmlns="http://www.w3.org/2000/svg" xmlns:xlink="http://www.w3.org/1999/xlink" x="0px" y="0px" viewBox="0 0 650 220"
	 style="enable-background:new 0 0 650 220;" xml:space="preserve">
<style type="text/css">
	.st0{display:none;fill:#212833;}
	.st1{fill:#F0B90B;}
</style>
<path class="st0" d="M45.6,0h558.8C629.5,0,650,16.9,650,37.4v145.1c0,20.6-20.5,37.4-45.6,37.4H45.6C20.5,220,0,203.1,0,182.6V37.4
	C0,16.9,20.5,0,45.6,0z"/>
<g id="Logos" transform="translate(11.09155,-21.718306)">
	<path id="path10-3" inkscape:connector-curvature="0" sodipodi:nodetypes="ccccc" class="st1" d="M577.1,73.4h-72.6v5h72.6V73.4z"
		/>
</g>
<g id="text21" transform="translate(11.09155,-21.718306)">
	<path id="path3717" inkscape:connector-curvature="0" class="st1" d="M272,83.5c0,1.6-0.3,3-0.9,4.1c-0.6,1.2-1.5,2.2-2.6,3
		s-2.5,1.4-4.1,1.8s-3.3,0.6-5.3,0.6h-16.4V58.5h16c3.6,0,6.3,0.8,8.3,2.4c2,1.6,3.1,3.8,3.1,6.5v0.1c0,2-0.4,3.5-1.3,4.7
		s-2,2.1-3.2,2.8c2,0.8,3.6,1.8,4.7,3.1C271.4,79.4,272,81.1,272,83.5L272,83.5z M262.5,68.7c0-1.2-0.4-2-1.3-2.6s-2.1-0.9-3.7-0.9
		H250v7.3h7c1.7,0,3-0.3,4-0.8C262,71,262.5,70.1,262.5,68.7L262.5,68.7z M264.4,82.5c0-1.2-0.4-2.1-1.3-2.7c-0.9-0.7-2.3-1-4.3-1
		H250v7.6h9c1.7,0,3-0.3,3.9-0.9C263.9,84.8,264.4,83.9,264.4,82.5L264.4,82.5z"/>
	<path id="path3719" inkscape:connector-curvature="0" class="st1" d="M309.2,78c0,2.6-0.4,4.9-1.1,6.9c-0.7,1.9-1.7,3.6-3,4.9
		s-2.9,2.3-4.8,2.9c-1.8,0.6-3.9,0.9-6.3,0.9c-4.6,0-8.3-1.3-11-3.8c-2.7-2.6-4-6.4-4-11.5V58.5h7.6V78c0,2.8,0.7,5,2,6.4
		s3.1,2.1,5.5,2.1s4.2-0.7,5.5-2.1s2-3.5,2-6.2V58.5h7.6L309.2,78L309.2,78z"/>
	<path id="path3721" inkscape:connector-curvature="0" class="st1" d="M318.6,93V58.5h7.6V93H318.6z"/>
	<path id="path3723" inkscape:connector-curvature="0" class="st1" d="M336.2,93V58.5h7.6v27.6H361V93H336.2z"/>
	<path id="path3725" inkscape:connector-curvature="0" class="st1" d="M378.8,65.5V93h-7.6V65.5h-10.5v-7h28.6v7H378.8z"/>
	<path id="path3727" inkscape:connector-curvature="0" class="st1" d="M447.8,75.7c0,2.5-0.5,4.8-1.4,7c-0.9,2.1-2.2,4-3.8,5.7
		c-1.6,1.6-3.6,2.9-5.8,3.8c-2.2,0.9-4.7,1.4-7.4,1.4c-2.7,0-5.1-0.5-7.4-1.4c-2.2-1-4.2-2.2-5.8-3.8c-1.6-1.6-2.9-3.5-3.8-5.6
		c-0.9-2.2-1.3-4.5-1.3-7v-0.1c0-2.5,0.5-4.8,1.4-6.9c0.9-2.2,2.2-4.1,3.8-5.7c1.6-1.6,3.6-2.9,5.8-3.8c2.3-1,4.7-1.4,7.4-1.4
		s5.1,0.5,7.4,1.4c2.2,0.9,4.2,2.2,5.8,3.8c1.6,1.6,2.9,3.5,3.8,5.6C447.4,70.9,447.8,73.2,447.8,75.7L447.8,75.7z M439.9,75.7
		c0-1.5-0.3-2.9-0.8-4.2c-0.5-1.3-1.2-2.5-2.2-3.5c-0.9-1-2-1.8-3.3-2.3c-1.2-0.6-2.6-0.9-4.2-0.9c-1.5,0-2.9,0.3-4.2,0.8
		c-1.3,0.6-2.4,1.3-3.3,2.3s-1.6,2.1-2.1,3.5c-0.5,1.3-0.7,2.7-0.7,4.1v0.1c0,1.5,0.2,2.9,0.7,4.2c0.5,1.3,1.2,2.5,2.2,3.5
		s2.1,1.8,3.4,2.4s2.7,0.8,4.2,0.8s2.9-0.3,4.2-0.8c1.3-0.6,2.4-1.3,3.3-2.3s1.6-2.1,2.1-3.4C439.6,78.7,439.9,77.3,439.9,75.7
		L439.9,75.7z"/>
	<path id="path3729" inkscape:connector-curvature="0" class="st1" d="M480.2,93l-16.7-22v22H456V58.5h7l16.2,21.3V58.5h7.5V93
		H480.2z"/>
</g>
<polygon class="st1" points="78.8,110 59,129.8 39.2,110 59,90.3 "/>
<rect x="112.8" y="96" transform="matrix(0.7071 -0.7071 0.7071 0.7071 -40.6091 121.8006)" class="st1" width="27.9" height="27.9"/>
<polygon class="st1" points="160.6,124.1 180.4,143.9 126.7,197.5 73.1,143.9 92.9,124.1 126.7,158 "/>
<polygon class="st1" points="92.9,95.9 73.1,76.1 126.7,22.5 180.4,76.1 160.6,95.9 126.7,62 "/>
<polygon class="st1" points="214.3,110 194.5,129.8 174.7,110 194.5,90.3 "/>
<path class="st1" d="M287.2,111.6c3.5-2,6.4-5,6.4-10.5v-0.2c0-7.6-6.1-12.6-16.1-12.6h-22.7v48.8H278c11,0,18.3-4.5,18.3-13.4v-0.1
	C296.3,117,292.8,113.8,287.2,111.6z M265.3,97.7h10.6c4.5,0,7,1.8,7,5v0.1c0,3.6-3,5.2-7.7,5.2h-9.9V97.7z M285.6,122.4
	c0,3.6-2.9,5.3-7.6,5.3h-12.8V117h12.4C283.1,117,285.6,119,285.6,122.4L285.6,122.4z"/>
<rect x="308.1" y="88.3" class="st1" width="10.7" height="48.8"/>
<polygon class="st1" points="343.7,137.2 333.1,137.2 333.1,88.4 343,88.4 365.9,118.4 365.9,88.4 376.4,88.4 376.4,137.3 
	367.3,137.2 343.7,106.2 "/>
<path class="st1" d="M415.2,88h-10l-20.9,49.2h10.9l4.5-11h20.6l4.5,11h11.3L415.2,88z M403.5,116.7l6.5-15.8l6.5,15.8H403.5z"/>
<polygon class="st1" points="478,137.2 454.4,106.2 454.4,137.2 443.8,137.2 443.8,88.4 453.7,88.4 476.6,118.4 476.6,88.4 
	487.1,88.4 487.1,137.2 "/>
<path class="st1" d="M534.2,135.7c-3.2,1.5-7,2.3-11.6,2.3c-13.6,0.2-24.8-10.7-25-24.3v-1c0-13.8,10.5-25.2,25.5-25.2
	c9.2,0,14.8,3,19.3,7.5l-6.9,7.9c-3.8-3.4-7.6-5.5-12.5-5.5c-8.3,0-14.2,6.8-14.2,15.2v0.1c0,8.3,5.8,15.3,14.2,15.3
	c5.5,0,9-2.2,12.8-5.7l6.8,7C540.1,132,537.4,134.2,534.2,135.7z"/>
<polygon class="st1" points="588.5,137.1 551.3,137.1 551.3,88.3 588.2,88.3 588.2,97.9 562,97.9 562,107.8 585,107.8 585,117.3 
	562,117.3 562,127.5 588.5,127.5 "/>
<path class="st1" d="M262,161.6c0-2.2,2-4,5.5-4c3.1,0,6.1,1.2,9.1,3.4l3.2-4.4c-3.4-2.7-7.3-4.2-12.2-4.2c-6.7,0-11.4,3.9-11.4,9.7
	c0,6.2,4,8.3,11.1,10c6.2,1.4,7.6,2.7,7.6,5.1c0,2.6-2.3,4.2-5.9,4.2c-4.2,0-7.4-1.6-10.6-4.3l-3.5,4.2c4,3.6,8.9,5.3,14,5.3
	c7,0,12-3.7,12-10c0-5.6-3.7-8.1-10.8-9.8C263.5,165.4,262,164.2,262,161.6z"/>
<path class="st1" d="M313.7,162.3v23.9h5.9v-33.4h-6.3l-10.2,15.8l-10.2-15.8h-6.3v33.4h5.8v-23.8l10.5,15.6h0.2L313.7,162.3z"/>
<path class="st1" d="M344.6,152.7h-5.5l-14.7,33.6h6l3.4-8.1h15.8l3.4,8.1h6.2L344.6,152.7z M347.5,173H336l5.7-13.3L347.5,173z"/>
<path class="st1" d="M392.5,186.3l-9-12.6c4.7-1.3,8-4.6,8-10.1c0-6.5-4.7-10.6-12.4-10.6h-14.9v33.4h5.9v-11.6h7.4l8.2,11.6
	L392.5,186.3L392.5,186.3z M385.5,163.8c0,3.4-2.7,5.6-6.9,5.6H370v-11.2h8.6C382.9,158.2,385.5,160.1,385.5,163.8z"/>
<path class="st1" d="M411.7,158.3h10.6v-5.4h-27.2v5.4h10.6v27.9h5.9v-27.9H411.7z"/>
<path class="st1" d="M468.7,180.9l-3.8-3.8c-2.9,2.7-5.5,4.3-9.6,4.3c-6.4,0-11.1-5.3-11.1-11.9c0-6.6,4.6-11.8,11.1-11.8
	c3.8,0,6.7,1.7,9.4,4.1l3.8-4.3c-3.2-3-6.9-5.2-13.1-5.2c-10.1,0-17.3,7.8-17.3,17.3c0,9.6,7.3,17.2,17,17.2
	C461.4,186.8,465.2,184.5,468.7,180.9z"/>
<path class="st1" d="M495.8,172.2v14.1h5.9v-33.4h-5.9v13.9h-16v-13.9h-5.9v33.4h5.9v-14.1L495.8,172.2L495.8,172.2z"/>
<path class="st1" d="M526.6,152.7h-5.5l-14.7,33.6h6l3.4-8.1h15.8l3.4,8.1h6.2L526.6,152.7z M529.6,173h-11.5l5.7-13.3L529.6,173z"
	/>
<path class="st1" d="M546.5,152.9v33.4h5.9v-33.4H546.5z"/>
<path class="st1" d="M583.8,176l-17.9-23.1h-5.5v33.4h5.8v-23.7l18.5,23.7h4.9v-33.4h-5.8V176z"/>
</svg>
