<?xml version="1.0" encoding="utf-8"?>
<!-- Generator: Adobe Illustrator 23.0.5, SVG Export Plug-In . SVG Version: 6.00 Build 0)  -->
<svg version="1.1" id="Layer_1" xmlns="http://www.w3.org/2000/svg" xmlns:xlink="http://www.w3.org/1999/xlink" x="0px" y="0px"
	 viewBox="0 0 440 128" style="enable-background:new 0 0 440 128;" xml:space="preserve">
<style type="text/css">
	.st0{fill:#E1AA4C;}
</style>
<g transform="translate(0.000000,789.000000) scale(0.100000,-0.100000)">
	<path class="st0" d="M432.2,7830c-130.1-40.3-194.9-62-198.5-66.8c-10.5-14.5-3.6-35.4,13.3-41.9c8.1-3.2,47.1,7.6,200.9,54.4
		c105.5,32.2,193.7,58.4,196.5,58.4c2.4,0,90.6-26.2,195.7-58.4s195.7-58.4,201.7-58.4c14.1,0,24.2,11.3,24.2,27.4
		c0,14.5-7.2,23-25,28.6c-148.2,47.1-388.1,117.2-400.2,116.8C632,7889.6,538.1,7862.6,432.2,7830z"/>
	<path class="st0" d="M79.9,7717.7c-13.3-13.3-18.5-64.8-18.5-183.6c0-124,4.8-165.1,30.2-266.1c53.6-211,167.9-390.2,336.2-526.3
		c75.3-60.8,192.1-131.7,216.6-131.7c9.3,0,29,8.9,62.8,28.2c97,55.6,162.7,105.1,233.9,176.8c169.5,169.9,264.9,384.1,286.3,642.6
		c8.1,96.2-2.8,242.4-19.3,260.5c-8.5,9.3-30.2,9.3-38.7,0.4c-3.2-4-54-106.7-112.7-228.7l-106.3-221.5H650.9H351.7L236.6,7493
		c-63.6,123.6-118,226.7-121.2,228.7C105.7,7727.7,88,7725.7,79.9,7717.7z M322.3,7201.9c111.5-218.2,214.2-418.7,227.9-446.1
		l24.6-49.5l-16.9,11.3c-277.4,180-428.8,447.7-444.5,786.8c-2.4,49.9,0,100.3,4.4,95.4C118.2,7599.3,210.4,7420.1,322.3,7201.9z
		 M1168.7,7428.2c-29-255.3-138.5-467.1-321.7-623.7c-39.9-34.2-126.4-96.6-128.8-93c-0.8,0.4,62,119.2,138.9,262.9
		c88.6,165.5,172.3,328.6,227.9,443.7l87.8,182.4l1.2-59.6C1174.7,7505.9,1172.3,7460,1168.7,7428.2z M916.2,7206.3
		c-6-17.7-271.4-506.9-273.4-504.9c-1.2,2-43.1,82.1-92.2,178.4S443.1,7089.9,421,7132.6l-39.9,77.3h268.2
		C816,7209.9,917,7208.3,916.2,7206.3z"/>
	<path class="st0" d="M1435.7,7324.8c-13.4-7-19.8-13.4-26.2-25.9c-5.5-10.7-5.8-19.8-5.8-148.9s0.3-138.2,5.8-148.9
		c6.7-12.8,13.1-19.2,26.8-26.2c8.5-4.3,28.1-4.9,168.7-4.9h158.6v21.4v21.4h-153.5c-144.9,0-154.1,0.3-158.6,5.5
		c-4.6,5.2-5.2,18.6-5.2,132.4c0,118.7,0.3,126.9,5.5,131.5c5.2,4.6,20.4,5.2,158.6,5.2h153.2v21.4v21.4h-159.3
		C1464.7,7329.7,1443.6,7329.1,1435.7,7324.8z"/>
	<path class="st0" d="M1992.5,7150v-180h166.3H2325v21.4v21.4h-144.9h-144.9v58v58h115.9h115.9v21.4v21.4h-115.9h-115.9v58v58h144.9
		H2325v21.4v21.4h-166.3h-166.3V7150z"/>
	<path class="st0" d="M2553.8,7150v-180h21.4h21.4v67.4v67.7l11.6-2.1c6.1-0.9,40.3-1.8,75.4-1.8l64.1-0.3l54.6-65.6l54.3-65.3h29
		c18.9,0,28.1,0.9,26.8,3.1c-1.2,1.8-25.3,31.1-54,65l-51.9,61.6l33.3,1.8c20.7,1.2,36.9,4,42.7,6.7c13.1,6.7,27.5,24.4,31.1,37.8
		c4.3,14.9,4.3,127.2,0.3,141.9c-4.3,14.6-16.2,28.7-30.8,36c-11,5.8-18.9,6.1-170.5,6.1h-158.6V7150z M2865.6,7282.1
		c4.9-4.6,5.5-10.7,5.5-64.4c0-51.3-0.6-60.4-5.2-65.3c-4.6-5.2-12.8-5.5-131.2-5.5c-122,0-126.3,0.3-132.1,6.1
		c-5.8,5.8-6.1,10.1-6.1,62.2c0,51.9,0.3,56.4,6.4,64.1l6.1,7.9h125.4C2847,7287.3,2860.5,7286.7,2865.6,7282.1z"/>
	<path class="st0" d="M3127.4,7308.6v-21.4h79.3h79.3v-158.6V6970h22.9h22.9v158.6v158.6h79.3h79.3v21.4v21.4h-181.5h-181.5V7308.6z
		"/>
	<path class="st0" d="M3704,7150v-180h21.4h21.4v180v180h-21.4H3704V7150z"/>
	<path class="st0" d="M3993.8,7150v-180h22.9h22.9v79.3v79.3h55.8l55.5-0.3l65.6-78.4l65.9-78.4l28.1-0.9
		c15.6-0.3,28.1,0.3,28.1,1.5c-0.3,1.2-33.3,41.5-73.2,89.4c-40.3,47.6-73.2,87.6-73.2,88.5c0,1.2,32.9,41.2,73.2,89.4
		c40.3,47.9,73.2,88.2,73.2,89.1c0,0.9-12.5,1.2-28.1,0.9l-28.1-0.9l-65.9-78.4l-65.6-78.4l-55.5-0.3h-55.8v79.3v79.3h-22.9h-22.9
		V7150z"/>
</g>
<g>
	<path class="st0" d="M150.3,16.4h3.3l7.7,22.8h-3.1l-4-12.7c-0.8-2.5-1.5-5-2.3-7.7h-0.1c-0.7,2.6-1.4,5.1-2.3,7.7l-4,12.7h-3
		L150.3,16.4z M146.7,29.9h10.5v2.3h-10.5V29.9z"/>
	<path class="st0" d="M163.8,33V22.3h2.9v10.3c0,3.1,1,4.5,3.2,4.5c1.7,0,2.9-0.9,4.5-2.8v-12h2.9v16.9h-2.4l-0.2-2.6h-0.1
		c-1.6,1.8-3.2,3.1-5.6,3.1C165.4,39.6,163.8,37.3,163.8,33z"/>
	<path class="st0" d="M181.7,30.8c0-5.5,3.5-8.9,7.3-8.9c2,0,3.2,0.7,4.7,2l-0.1-2.9v-6.5h2.9v24.7h-2.4l-0.2-2h-0.1
		c-1.3,1.3-3.1,2.4-5.1,2.4C184.4,39.6,181.7,36.4,181.7,30.8z M193.6,34.9v-8.8c-1.4-1.3-2.7-1.8-4.1-1.8c-2.7,0-4.8,2.6-4.8,6.4
		c0,4,1.7,6.5,4.6,6.5C190.9,37.2,192.2,36.5,193.6,34.9z"/>
	<path class="st0" d="M201.7,17c0-1.1,0.9-1.8,2-1.8c1.1,0,2,0.7,2,1.8c0,1.1-0.9,1.8-2,1.8C202.5,18.9,201.7,18.1,201.7,17z
		 M202.2,22.3h2.9v16.9h-2.9V22.3z"/>
	<path class="st0" d="M211.2,34v-9.3h-2.5v-2.2l2.6-0.2l0.3-4.7h2.4v4.7h4.6v2.3h-4.6V34c0,2.1,0.7,3.3,2.6,3.3
		c0.6,0,1.4-0.2,1.9-0.5l0.6,2.2c-0.9,0.3-2.1,0.6-3.1,0.6C212.4,39.6,211.2,37.3,211.2,34z"/>
	<path class="st0" d="M220.7,30.8c0-5.5,3.7-8.9,7.6-8.9c4.3,0,6.7,3.1,6.7,7.9c0,0.6-0.1,1.2-0.1,1.6h-11.4
		c0.2,3.6,2.4,5.9,5.6,5.9c1.6,0,2.9-0.5,4.2-1.3l1,1.9c-1.5,1-3.3,1.7-5.6,1.7C224.3,39.6,220.7,36.3,220.7,30.8z M232.5,29.4
		c0-3.4-1.5-5.2-4.2-5.2c-2.4,0-4.5,1.9-4.8,5.2H232.5z"/>
	<path class="st0" d="M238,30.8c0-5.5,3.5-8.9,7.3-8.9c2,0,3.2,0.7,4.7,2l-0.1-2.9v-6.5h2.9v24.7h-2.4l-0.2-2H250
		c-1.3,1.3-3.1,2.4-5.1,2.4C240.7,39.6,238,36.4,238,30.8z M249.9,34.9v-8.8c-1.4-1.3-2.7-1.8-4.1-1.8c-2.7,0-4.8,2.6-4.8,6.4
		c0,4,1.7,6.5,4.6,6.5C247.1,37.2,248.5,36.5,249.9,34.9z"/>
	<path class="st0" d="M268,37.5L268,37.5l-0.4,1.7h-2.3V14.5h2.9v6.8l-0.1,3c1.5-1.3,3.4-2.3,5.3-2.3c4.4,0,6.7,3.4,6.7,8.6
		c0,5.8-3.5,9.1-7.3,9.1C271.3,39.6,269.5,38.8,268,37.5z M277.2,30.5c0-3.7-1.3-6.2-4.4-6.2c-1.4,0-2.9,0.8-4.5,2.3v8.8
		c1.5,1.3,3,1.8,4.1,1.8C275.1,37.2,277.2,34.7,277.2,30.5z"/>
	<path class="st0" d="M282.7,46.1l0.6-2.3c0.3,0.1,0.9,0.3,1.3,0.3c1.9,0,3.1-1.5,3.8-3.6l0.4-1.2L282,22.3h2.9l3.4,9.3
		c0.5,1.5,1.1,3.2,1.6,4.8h0.1c0.5-1.5,1-3.3,1.4-4.8l3-9.3h2.8L291,40.6c-1.2,3.3-2.9,5.9-6.3,5.9
		C283.9,46.5,283.3,46.3,282.7,46.1z"/>
</g>
</svg>
