<svg xmlns="http://www.w3.org/2000/svg" xmlns:xlink="http://www.w3.org/1999/xlink" id="Layer_1" x="0" y="0" version="1.1" viewBox="0 0 320 128" xml:space="preserve" style="enable-background:new 0 0 320 128"><style type="text/css">.st0{fill:#469fa2}.st1{fill:#6bcad2}</style><g><path d="M57.1,611.5l55.4,32l55.4-32v-64l-55.4-32l-55.4,32L57.1,611.5z" class="st0" transform="translate(-50.017 -515.51)"/><path d="M106.8,523.2l-40.2,23.2c0.1,0.7,0.1,1.4,0,2.1l40.2,23.2c3.4-2.5,8-2.5,11.4,0l40.2-23.2 c-0.1-0.7-0.1-1.4,0-2.1l-40.2-23.2C114.8,525.7,110.2,525.7,106.8,523.2L106.8,523.2z M162.2,555L122,578.4 c0.5,4.2-1.8,8.2-5.7,9.9v46.1c0.7,0.3,1.3,0.6,1.9,1.1l40.2-23.2c-0.5-4.2,1.8-8.2,5.7-9.9V556C163.4,555.8,162.8,555.4,162.2,555 L162.2,555z M62.8,555.2c-0.6,0.4-1.2,0.8-1.9,1.1v46.4c3.9,1.7,6.2,5.7,5.7,9.9l40.2,23.2c0.6-0.4,1.2-0.8,1.9-1.1v-46.4 c-3.9-1.7-6.2-5.7-5.7-9.9L62.8,555.2L62.8,555.2z" class="st1" transform="translate(-50.017 -515.51)"/></g><g><g><path d="M1086.4,625.5h-8v67.6h8V625.5z" class="st0" transform="translate(-933.71 -584.21)"/><path d="M1121.2,657.9c-3.1,0-11.8-0.1-11.8-0.1v-25.2h14c8.3,0,14.4,3.2,14.4,11.2 C1137.7,650.6,1136.5,657.9,1121.2,657.9z M1109.4,693.1v-28.9c3.4,0.3,8.2,0.6,11,0.6c20,0,25.5-8.6,25.5-21.2 c0-13.1-9.8-18.1-22.7-18.1h-21.9v67.6L1109.4,693.1L1109.4,693.1z" class="st0" transform="translate(-933.71 -584.21)"/><path d="M1190.3,655.2h-27.9v-22.8h28.8l0.6-6.9h-37.4v67.6h8v-31.4h27.9V655.2L1190.3,655.2z" class="st0" transform="translate(-933.71 -584.21)"/><path d="M1201.5,682.1c6,3,13.8,5.2,22.4,5.2c9.6,0,14.7-4.3,14.7-13.4c0-5.5-2.2-9.2-10.8-11.3l-13.3-3.3 c-9.4-2.3-15.2-7.3-15.2-16.3c0-13.1,9.8-18.8,24.6-18.8c8.2,0,15.6,2,20.3,4.9l-2.3,6.3c-3.6-1.9-10.7-4.3-18.1-4.3 c-10.7,0-16.4,3.6-16.4,11.4c0,5.3,3.5,8.1,10,9.7l12.7,3.1c10.1,2.4,16.6,7.3,16.6,18.3c0,14.1-9.4,20.6-23.2,20.6 c-11.8,0-20.2-3.1-24.3-5.6L1201.5,682.1L1201.5,682.1z" class="st0" transform="translate(-933.71 -584.21)"/></g></g><g><path d="M144.8,10.4h4.9c6.1,0,9.4,3.5,9.4,9.9s-3.3,10-9.4,10h-5.1V10.4H144.8z M149.6,28.3c4.7,0,7-2.9,7-8 s-2.3-7.9-7-7.9h-2.3v15.8C147.4,28.3,149.6,28.3,149.6,28.3z" class="st0"/><path d="M162.2,23c0-4.8,3.3-7.7,6.6-7.7c3.8,0,6,2.7,6,7c0,0.5,0,1-0.1,1.4h-10c0.1,3.2,2.2,5.2,4.9,5.2 c1.4,0,2.5-0.5,3.7-1.1l0.9,1.6c-1.3,0.9-2.9,1.5-4.9,1.5C165.2,30.7,162.2,27.8,162.2,23z M172.4,21.7c0-2.9-1.4-4.6-3.7-4.6 c-2,0-3.9,1.6-4.2,4.6H172.4z" class="st0"/><path d="M178.3,15.6h2l0.3,1.6h0.1c1.4-1.1,3-2,4.7-2c3.8,0,5.8,2.9,5.8,7.5c0,5.1-3,8-6.5,8c-1.4,0-2.8-0.6-4.1-1.8 l0.1,2.5v4.9h-2.5L178.3,15.6L178.3,15.6z M188.7,22.7c0-3.3-1.1-5.4-3.9-5.4c-1.3,0-2.5,0.6-3.9,2V27c1.4,1.1,2.7,1.5,3.5,1.5 C186.9,28.6,188.7,26.4,188.7,22.7z" class="st0"/><path d="M195.1,27.4V8.7h2.5v18.9c0,0.8,0.4,1,0.8,1c0.1,0,0.3,0,0.5,0l0.4,1.9c-0.4,0.1-0.8,0.3-1.4,0.3 C195.9,30.7,195.1,29.6,195.1,27.4z" class="st0"/><path d="M201.7,23c0-4.9,3.2-7.7,6.8-7.7c3.7,0,6.8,2.8,6.8,7.7s-3.2,7.7-6.8,7.7C205,30.7,201.7,27.9,201.7,23z M212.9,23c0-3.4-1.8-5.7-4.3-5.7s-4.3,2.3-4.3,5.7s1.8,5.7,4.3,5.7S212.9,26.4,212.9,23z" class="st0"/><path d="M217.7,36.4l0.5-2c0.3,0.1,0.8,0.3,1.1,0.3c1.6,0,2.7-1.4,3.3-3.2l0.4-1.1l-6-14.8h2.5l3,8.2 c0.5,1.3,1,2.8,1.4,4.2h0.1c0.4-1.4,0.9-2.9,1.3-4.2l2.7-8.2h2.4l-5.6,16c-1,2.9-2.5,5.2-5.6,5.2C218.8,36.7,218.2,36.7,217.7,36.4 z" class="st0"/><path d="M232.1,23c0-4.8,3.3-7.7,6.6-7.7c3.8,0,6,2.7,6,7c0,0.5,0,1-0.1,1.4h-10c0.1,3.2,2.2,5.2,4.9,5.2 c1.4,0,2.5-0.5,3.7-1.1l0.9,1.6c-1.3,0.9-2.9,1.5-4.9,1.5C235.3,30.7,232.1,27.8,232.1,23z M242.5,21.7c0-2.9-1.4-4.6-3.7-4.6 c-2,0-3.9,1.6-4.2,4.6H242.5z" class="st0"/><path d="M247.3,23c0-4.8,3-7.7,6.3-7.7c1.8,0,2.8,0.6,4.2,1.8l-0.1-2.5V8.8h2.5v21.7h-2l-0.3-1.8h-0.1 c-1.1,1.1-2.8,2.2-4.4,2.2C249.7,30.7,247.3,27.9,247.3,23z M257.7,26.7v-7.7c-1.3-1.1-2.4-1.5-3.5-1.5c-2.4,0-4.2,2.3-4.2,5.7 c0,3.5,1.5,5.7,4.1,5.7C255.3,28.6,256.4,27.9,257.7,26.7z" class="st0"/><path d="M270.2,23c0-4.9,3.2-7.7,6.8-7.7s6.8,2.8,6.8,7.7s-3.2,7.7-6.8,7.7S270.2,27.9,270.2,23z M281.3,23 c0-3.4-1.8-5.7-4.3-5.7s-4.3,2.3-4.3,5.7s1.8,5.7,4.3,5.7C279.6,28.7,281.3,26.4,281.3,23z" class="st0"/><path d="M287.7,15.6h2l0.3,2.2h0.1c1.4-1.4,2.9-2.5,4.9-2.5c3.2,0,4.6,2,4.6,5.8v9.4h-2.5v-9c0-2.8-0.9-3.9-2.8-3.9 c-1.5,0-2.5,0.8-4.1,2.3v10.6h-2.5V15.6z" class="st0"/></g></svg>